<svg xmlns="http://www.w3.org/2000/svg" viewBox="0 0 581 228" width="581" height="228" role="img" aria-label="flush logo">
  <path d="M 49 215.27 L 43 215.79 L 37 214.32 L 31.42 210 L 28.81 205 L 28.13 124 L 26 119.77 L 18 116.41 L 13.58 112 L 11.56 106 L 11.91 101 L 13.67 97 L 17 93.35 L 25 90.01 L 27.25 88 L 28.2 85 L 28.36 62 L 29.64 52 L 34.43 39 L 43 27.31 L 53 19.55 L 68 13.61 L 83 11.6 L 100 12.81 L 106 15.68 L 109.57 20 L 111.22 27 L 109.55 33 L 107 36.49 L 103 39.32 L 98 40.48 L 79 40.91 L 72 43.58 L 66.51 48 L 62.65 54 L 60.65 61 L 60.46 84 L 61.9 88 L 66 90.2 L 94 90.36 L 99 91.59 L 103.7 95 L 106.4 99 L 107.47 103 L 107.23 107 L 104 113.65 L 101 116.33 L 97 118.04 L 67 118.57 L 64 119.5 L 60.83 123 L 60.4 202 L 57.24 210 L 53 213.63 L 49 215.27 Z M 559 215.04 L 553 215.86 L 547 214.41 L 542.32 211 L 539.62 207 L 538.49 202 L 538.16 143 L 536.33 135 L 533.09 129 L 528.46 124 L 523 120.55 L 514 118.28 L 501 119.71 L 493 124.59 L 487.75 131 L 484.8 138 L 483.7 145 L 483.35 204 L 481.08 209 L 478 212.3 L 472 215.36 L 466 215.81 L 458 213.05 L 452.57 207 L 448.47 187 L 443.46 174 L 435.21 161 L 426 151.75 L 414 143.78 L 398 137.85 L 382 135.59 L 355 136.35 L 345 133.48 L 337.79 128 L 332.95 120 L 331.63 112 L 333.82 103 L 339 96.22 L 344 92.62 L 350 90.49 L 360 90.5 L 372 95.66 L 391 113.38 L 399 118.37 L 406 121.21 L 416 123.4 L 426 123.51 L 435 121.37 L 441 118.27 L 448.41 110 L 450.47 103 L 450.61 40 L 451.62 35 L 455.14 29 L 462 24.5 L 469 23.52 L 475 24.63 L 480 27.53 L 483.3 31 L 486.34 39 L 486.34 84 L 486.64 87 L 489 91 L 495 93.27 L 507 90.49 L 521 90.47 L 531 92.63 L 538 95.5 L 548 101.76 L 554.71 108 L 560.31 115 L 565.47 125 L 568.21 134 L 569.38 142 L 569.58 202 L 567.25 209 L 563 213.34 L 559 215.04 Z M 176 216.26 L 167 216.81 L 157 215.32 L 148 211.55 L 143 208.18 L 137.62 203 L 132.48 195 L 129.56 188 L 127.77 180 L 126.96 171 L 126.94 52 L 128.85 45 L 130.95 42 L 135 38.6 L 140 36.49 L 146 36 L 153 37.81 L 159.01 43 L 162.32 51 L 162.65 167 L 166.72 180 L 173 187.25 L 183.37 194 L 186.56 201 L 186.4 206 L 184.58 210 L 180.75 214 L 176 216.26 Z M 388 216.16 L 382 216.26 L 371 213.29 L 360 205.58 L 347 191.43 L 340 185.61 L 331 180.72 L 318 177.74 L 309 178.85 L 300 182.58 L 293.76 188 L 287.25 197 L 279 205.28 L 270 211.16 L 262 214.41 L 252 216.57 L 237 216.51 L 225 213.45 L 218 210.44 L 206 202.14 L 198.64 194 L 192.55 184 L 188.58 173 L 186.8 159 L 186.81 107 L 187.55 102 L 189.63 98 L 195 93.45 L 203 91.91 L 210 93.57 L 215.6 99 L 217.73 106 L 217.75 161 L 219.86 172 L 224.47 180 L 232 186.15 L 241 189.39 L 248 189.59 L 258 187.18 L 263 184.36 L 269.22 178 L 273.15 170 L 274.66 161 L 274.69 106 L 276.5 100 L 280 95.5 L 285 92.6 L 291 91.79 L 298 93.57 L 302.28 97 L 305.35 102 L 307.64 121 L 311.77 135 L 318 145.94 L 327 155.43 L 341 163.42 L 352 166.14 L 381 165.69 L 389 166.84 L 399 171.58 L 405.17 178 L 409.28 188 L 409.35 196 L 407.3 202 L 403.47 208 L 400 211.18 L 395 214.07 L 388 216.16 Z" fill="#000000" fill-rule="evenodd"/>
</svg>
