<svg xmlns="http://www.w3.org/2000/svg" width="272" height="218" viewBox="0 0 272 218" fill="none">
<path d="M 135 27 L 134 28 L 128 28 L 127 29 L 122 29 L 121 30 L 119 30 L 118 31 L 116 31 L 115 32 L 113 32 L 112 33 L 111 33 L 110 34 L 108 34 L 107 35 L 106 35 L 105 36 L 104 36 L 103 37 L 102 37 L 100 39 L 99 39 L 97 41 L 96 41 L 93 44 L 92 44 L 85 51 L 84 51 L 84 52 L 79 57 L 79 58 L 76 61 L 76 62 L 74 64 L 74 65 L 73 66 L 73 67 L 71 69 L 71 70 L 70 71 L 70 72 L 69 73 L 69 74 L 68 75 L 68 77 L 67 78 L 67 79 L 66 80 L 66 82 L 65 83 L 65 85 L 64 86 L 64 88 L 63 89 L 63 92 L 62 93 L 62 97 L 61 98 L 61 104 L 60 105 L 60 120 L 61 121 L 61 126 L 62 127 L 62 131 L 63 132 L 63 135 L 64 136 L 64 138 L 65 139 L 65 142 L 66 143 L 66 144 L 67 145 L 67 146 L 68 147 L 68 149 L 69 150 L 69 151 L 70 152 L 70 153 L 71 154 L 71 155 L 73 157 L 73 158 L 74 159 L 74 160 L 76 162 L 76 163 L 79 166 L 79 167 L 92 180 L 93 180 L 95 182 L 96 182 L 99 185 L 100 185 L 101 186 L 102 186 L 104 188 L 106 188 L 108 190 L 110 190 L 111 191 L 112 191 L 113 192 L 115 192 L 116 193 L 119 193 L 120 194 L 122 194 L 123 195 L 127 195 L 128 196 L 152 196 L 153 195 L 157 195 L 158 194 L 160 194 L 161 193 L 164 193 L 165 192 L 166 192 L 167 191 L 169 191 L 170 190 L 172 190 L 173 189 L 174 189 L 175 188 L 176 188 L 178 186 L 179 186 L 180 185 L 181 185 L 183 183 L 184 183 L 185 182 L 186 182 L 189 179 L 190 179 L 198 171 L 198 170 L 199 169 L 199 168 L 200 167 L 200 166 L 201 165 L 201 155 L 200 154 L 200 152 L 198 150 L 198 149 L 195 146 L 194 146 L 193 145 L 192 145 L 191 144 L 190 144 L 189 143 L 175 143 L 174 144 L 171 144 L 170 145 L 157 145 L 156 144 L 154 144 L 152 142 L 151 142 L 146 137 L 146 136 L 145 135 L 145 134 L 144 133 L 144 130 L 143 129 L 143 115 L 142 114 L 142 112 L 139 109 L 138 109 L 137 108 L 135 108 L 134 107 L 126 107 L 125 108 L 123 108 L 122 109 L 121 109 L 119 111 L 119 113 L 118 114 L 118 167 L 117 168 L 117 169 L 116 170 L 116 171 L 113 174 L 112 174 L 111 175 L 103 175 L 102 174 L 101 174 L 98 171 L 98 170 L 97 169 L 97 167 L 96 166 L 96 77 L 97 76 L 97 70 L 98 69 L 98 67 L 99 66 L 99 64 L 100 63 L 100 62 L 101 61 L 101 60 L 102 59 L 102 58 L 105 55 L 105 54 L 109 50 L 110 50 L 113 47 L 114 47 L 116 45 L 117 45 L 118 44 L 120 44 L 121 43 L 123 43 L 124 42 L 127 42 L 128 41 L 131 41 L 132 40 L 142 40 L 143 41 L 148 41 L 149 42 L 153 42 L 154 43 L 156 43 L 157 44 L 158 44 L 159 45 L 160 45 L 161 46 L 162 46 L 163 47 L 163 48 L 165 50 L 165 51 L 166 52 L 166 58 L 165 59 L 165 60 L 161 64 L 160 64 L 159 65 L 158 65 L 157 66 L 154 66 L 153 65 L 150 65 L 149 64 L 147 64 L 146 63 L 143 63 L 142 62 L 131 62 L 130 63 L 128 63 L 127 64 L 126 64 L 121 69 L 121 70 L 120 71 L 120 72 L 119 73 L 119 75 L 118 76 L 118 85 L 119 86 L 119 87 L 121 89 L 136 89 L 137 90 L 141 90 L 142 91 L 144 91 L 145 92 L 146 92 L 147 93 L 148 93 L 150 95 L 151 95 L 155 99 L 155 100 L 156 101 L 156 102 L 157 103 L 157 104 L 158 105 L 158 108 L 159 109 L 159 110 L 160 111 L 160 113 L 162 115 L 162 116 L 168 122 L 169 122 L 170 123 L 171 123 L 172 124 L 174 124 L 175 125 L 178 125 L 179 126 L 187 126 L 188 127 L 195 127 L 196 128 L 199 128 L 200 129 L 206 129 L 207 128 L 209 128 L 210 127 L 212 127 L 217 122 L 217 121 L 218 120 L 218 119 L 219 118 L 219 102 L 218 101 L 218 96 L 217 95 L 217 92 L 216 91 L 216 88 L 215 87 L 215 85 L 214 84 L 214 82 L 213 81 L 213 79 L 212 78 L 212 77 L 211 76 L 211 74 L 210 73 L 210 72 L 209 71 L 209 70 L 208 69 L 208 68 L 206 66 L 206 65 L 204 63 L 204 62 L 202 60 L 202 59 L 199 56 L 199 55 L 189 45 L 188 45 L 185 42 L 184 42 L 182 40 L 181 40 L 179 38 L 178 38 L 177 37 L 176 37 L 175 36 L 174 36 L 173 35 L 172 35 L 171 34 L 170 34 L 169 33 L 168 33 L 167 32 L 165 32 L 164 31 L 162 31 L 161 30 L 158 30 L 157 29 L 153 29 L 152 28 L 145 28 L 144 27 Z" fill="black" fill-rule="evenodd" clip-rule="evenodd"/>
</svg>